<svg width="40" height="40" viewBox="0 0 40 40" fill="none" xmlns="http://www.w3.org/2000/svg">
<path fill-rule="evenodd" clip-rule="evenodd" d="M20 23.3335V26.6668L13.3334 20.0002L20 13.3335V16.6668H26.6667V23.3335H20ZM15.6917 20.0002L18.3334 22.6418V21.6668H25V18.3335H18.3334V17.3585L15.6917 20.0002Z" fill="#CBC9C9"/>
<path fill-rule="evenodd" clip-rule="evenodd" d="M20 36.6668C29.2047 36.6668 36.6667 29.2048 36.6667 20.0002C36.6667 10.7954 29.2047 3.3335 20 3.3335C10.7953 3.3335 3.33337 10.7954 3.33337 20.0002C3.33337 29.2048 10.7953 36.6668 20 36.6668ZM20 33.3335C27.3639 33.3335 33.3334 27.364 33.3334 20.0002C33.3334 12.6364 27.3639 6.66683 20 6.66683C12.6362 6.66683 6.66671 12.6364 6.66671 20.0002C6.66671 27.364 12.6362 33.3335 20 33.3335Z" fill="#CBC9C9"/>
</svg>
