<svg width="24" height="24" viewBox="0 0 24 24" fill="none" xmlns="http://www.w3.org/2000/svg">
<g clip-path="url(#clip0_1265_5076)">
<path d="M5.17831 21.1946L6.41882 22.1923C7.41088 22.9902 8.6459 23.4252 9.91903 23.4252H13.4128C14.5362 23.4252 15.6334 23.0864 16.5613 22.4531L22.0529 18.7049C22.3944 18.4717 22.5989 18.0849 22.5989 17.6712C22.5989 16.746 21.6296 16.1407 20.7982 16.5466L15.8478 18.964V17.7796C15.8478 17.0709 15.2733 16.4965 14.5646 16.4965H10.5884C9.71728 16.4965 8.85112 16.3655 8.019 16.1079L5.12891 15.2134L5.17831 21.1946Z" fill="#F1D5BC"/>
<path d="M5.02804 13.6919H1.40112V23.3035H5.02804V13.6919Z" fill="#CC473C"/>
<path d="M16.9047 7.22691C16.9047 9.44902 15.1034 11.2504 12.8812 11.2504C10.659 11.2504 8.85767 9.44907 8.85767 7.22691C8.85767 5.00474 12.8812 0.574707 12.8812 0.574707C12.8812 0.574707 16.9047 5.00479 16.9047 7.22691Z" fill="#5FABD2"/>
<path d="M23.1736 17.6713C23.1736 17.0372 22.8525 16.4581 22.3148 16.1222C21.777 15.7864 21.1157 15.752 20.5461 16.0302L16.4226 18.0436V17.7795C16.4226 16.7551 15.5892 15.9217 14.5647 15.9217H10.5885C9.77428 15.9217 8.96699 15.7996 8.18905 15.5588L5.60309 14.7584V13.692C5.60309 13.3746 5.3457 13.1172 5.02831 13.1172H1.4012C1.08381 13.1172 0.826416 13.3746 0.826416 13.692V23.3034C0.826416 23.6208 1.08381 23.8782 1.4012 23.8782H5.02821C5.34561 23.8782 5.603 23.6208 5.603 23.3034V22.2738L6.05853 22.6402C7.14889 23.5171 8.5199 24 9.91903 24H13.4128C14.657 24 15.8577 23.6292 16.8853 22.9279L22.3768 19.1797C22.8758 18.8392 23.1736 18.2753 23.1736 17.6713ZM4.45338 22.7288H1.97603V14.2668H4.45348V22.7288H4.45338ZM21.7288 18.2301L16.2373 21.9783C15.4015 22.5488 14.4249 22.8504 13.4128 22.8504H9.91903C8.78099 22.8504 7.66583 22.4576 6.779 21.7444L5.603 20.7985V15.9618L7.84912 16.657C8.73726 16.9319 9.65892 17.0712 10.5884 17.0712H14.5647C14.9553 17.0712 15.273 17.3889 15.273 17.7795V18.5338C14.529 18.7319 12.8203 19.0936 11.0727 18.8123C10.7595 18.7618 10.4643 18.9751 10.4138 19.2885C10.3635 19.6019 10.5765 19.8968 10.89 19.9473C11.4142 20.0317 11.9319 20.0655 12.4255 20.0655C14.3665 20.0655 15.9322 19.5425 16.0318 19.5085H16.0318C16.0324 19.5083 16.0337 19.5079 16.0341 19.5077C16.0554 19.5004 16.0758 19.4917 16.0956 19.4823C16.097 19.4816 16.0986 19.4812 16.0999 19.4805L21.0504 17.0631C21.2647 16.9585 21.5035 16.9709 21.7057 17.0973C21.908 17.2235 22.024 17.4328 22.024 17.6713C22.0241 17.8951 21.9137 18.1041 21.7288 18.2301Z" fill="#231F20"/>
<path d="M12.8813 11.8252C15.4168 11.8252 17.4796 9.76246 17.4796 7.22693C17.4796 4.85139 13.7338 0.658596 13.3067 0.188298C13.1978 0.068344 13.0434 0 12.8813 0C12.7192 0 12.5647 0.068344 12.4558 0.188298C12.0287 0.658596 8.28296 4.85139 8.28296 7.22693C8.28296 9.76251 10.3458 11.8252 12.8813 11.8252ZM12.8814 1.44502C14.1308 2.90331 16.33 5.77202 16.33 7.22698C16.33 9.12861 14.7829 10.6757 12.8813 10.6757C10.9796 10.6757 9.43253 9.12861 9.43253 7.22698C9.43257 5.77352 11.6319 2.90387 12.8814 1.44502Z" fill="#231F20"/>
<path d="M12.8815 9.52602C14.1375 9.52602 15.1688 8.50437 15.1806 7.24863C15.1835 6.93124 14.9286 6.67141 14.6112 6.66846C14.6093 6.66846 14.6076 6.66846 14.6056 6.66846C14.2907 6.66846 14.0339 6.92229 14.0309 7.23785C14.0251 7.8657 13.5095 8.37645 12.8814 8.37645C12.564 8.37645 12.3066 8.63384 12.3066 8.95123C12.3066 9.26862 12.5641 9.52602 12.8815 9.52602Z" fill="#231F20"/>
</g>
<defs>
<clipPath id="clip0_1265_5076">
<rect width="24" height="24" fill="white"/>
</clipPath>
</defs>
</svg>
