<svg width="40" height="40" viewBox="0 0 40 40" fill="none" xmlns="http://www.w3.org/2000/svg">
<path fill-rule="evenodd" clip-rule="evenodd" d="M20.0002 16.6668V13.3335L26.6668 20.0002L20.0002 26.6668V23.3335H13.3335V16.6668H20.0002ZM24.3085 20.0002L21.6668 17.3585V18.3335H15.0002V21.6668H21.6668V22.6418L24.3085 20.0002Z" fill="#1F2937"/>
<path fill-rule="evenodd" clip-rule="evenodd" d="M20.0002 36.6668C29.2048 36.6668 36.6668 29.2048 36.6668 20.0002C36.6668 10.7954 29.2048 3.3335 20.0002 3.3335C10.7954 3.3335 3.3335 10.7954 3.3335 20.0002C3.3335 29.2048 10.7954 36.6668 20.0002 36.6668ZM20.0002 33.3335C27.364 33.3335 33.3335 27.364 33.3335 20.0002C33.3335 12.6364 27.364 6.66683 20.0002 6.66683C12.6364 6.66683 6.66683 12.6364 6.66683 20.0002C6.66683 27.364 12.6364 33.3335 20.0002 33.3335Z" fill="#1F2937"/>
</svg>
