<svg width="16" height="17" viewBox="0 0 16 17" fill="none" xmlns="http://www.w3.org/2000/svg">
<g clip-path="url(#clip0_923_9958)">
<path d="M14.6668 8.6361V9.65016C14.6668 12.2507 14.6668 13.551 13.8858 14.3589C13.1048 15.1668 11.8476 15.1668 9.3335 15.1668H6.66683C4.15267 15.1668 2.8956 15.1668 2.11454 14.3589C1.3335 13.551 1.3335 12.2507 1.3335 9.65016V8.6361C1.3335 7.11049 1.3335 6.34768 1.67963 5.71532C2.02576 5.08297 2.65813 4.6905 3.92285 3.90558L5.25618 3.07808C6.59309 2.24836 7.26156 1.8335 8.00016 1.8335C8.73876 1.8335 9.40723 2.24836 10.7442 3.07808L12.0775 3.90558C13.3422 4.6905 13.9746 5.08297 14.3207 5.71532" stroke="#1F2937" stroke-width="2" stroke-linecap="round"/>
<path d="M10 12.5H6" stroke="#1F2937" stroke-width="2" stroke-linecap="round"/>
</g>
<defs>
<clipPath id="clip0_923_9958">
<rect width="16" height="16" fill="white" transform="translate(0 0.5)"/>
</clipPath>
</defs>
</svg>
