<svg width="16" height="16" viewBox="0 0 16 16" fill="none" xmlns="http://www.w3.org/2000/svg">
<path d="M8.48946 2.1324C7.09181 2.15277 5.7571 2.717 4.76863 3.70532C3.92769 4.54863 3.39076 5.64742 3.24218 6.82905C3.0936 8.01069 3.34181 9.2082 3.94779 10.2334L3.31654 12.7564L5.83425 12.1262C6.86014 12.7329 8.05866 12.9814 9.2412 12.8324C10.4237 12.6834 11.5232 12.1455 12.3665 11.3032C13.3739 10.2956 13.9398 8.92911 13.9398 7.50428C13.9398 6.07945 13.3739 4.71295 12.3665 3.70532C11.8583 3.19718 11.2533 2.79616 10.5874 2.52598C9.92144 2.25581 9.20806 2.12198 8.48946 2.1324ZM7.76967 4.16469H9.35717L9.16863 8.30636H7.95821L7.76967 4.16469ZM8.56342 9.16678C8.80295 9.16678 9.00474 9.2518 9.16863 9.42199C9.33882 9.58587 9.42384 9.7846 9.42384 10.0178C9.42384 10.2573 9.33882 10.4622 9.16863 10.6324C9.00474 10.7963 8.80295 10.8782 8.56342 10.8782C8.3302 10.8782 8.1284 10.7963 7.95821 10.6324C7.79433 10.4622 7.71238 10.2573 7.71238 10.0178C7.71238 9.7846 7.79433 9.58587 7.95821 9.42199C8.1284 9.2518 8.3302 9.16678 8.56342 9.16678Z" fill="black"/>
</svg>
