<svg width="181" height="151" viewBox="0 0 181 151" fill="none" xmlns="http://www.w3.org/2000/svg">
<path d="M90.5002 0.763672C41.1043 0.763672 0.208496 32.0445 0.208496 71.6387C0.208496 90.4036 9.91523 107.162 24.8335 119.719V146.067C24.8336 146.991 25.1726 147.886 25.791 148.594C26.4094 149.303 27.2679 149.78 28.2162 149.943C28.2162 149.943 32.575 150.613 38.3805 149.097C43.7184 147.702 50.6565 144.079 57.747 137.284C67.9621 140.423 78.8873 142.514 90.5002 142.514C139.896 142.514 180.792 111.233 180.792 71.6387C180.792 32.0445 139.896 0.763672 90.5002 0.763672ZM90.5002 8.63867C136.305 8.63867 172.583 37.3023 172.583 71.6387C172.583 105.975 136.305 134.639 90.5002 134.639C78.9003 134.639 67.8816 132.768 57.8913 129.44C57.1356 129.19 56.3205 129.158 55.5459 129.346C54.7713 129.535 54.0709 129.936 53.5306 130.501C46.7638 137.574 40.6071 140.356 36.2322 141.499C34.1086 142.053 34.1348 141.8 33.0418 141.837V118.443C33.0432 117.861 32.9102 117.286 32.6524 116.759C32.3946 116.233 32.0184 115.768 31.5509 115.397C17.1077 103.94 8.41683 88.5698 8.41683 71.6387C8.41683 37.3023 44.6958 8.63867 90.5002 8.63867Z" fill="#1F2937"/>
</svg>
